<svg width="960" height="1200" viewBox="0 0 960 1200" fill="none" xmlns="http://www.w3.org/2000/svg">
  <rect width="960" height="1200" rx="56" fill="#F6F1E8"/>
  <rect x="116" y="88" width="728" height="1024" rx="44" fill="#FFFEFC"/>
  <path d="M170 1042H790" stroke="#DED6C9" stroke-width="12" stroke-linecap="round"/>
  <circle cx="480" cy="246" r="76" fill="#0D3F31"/>
  <path d="M378 364C404 333 444 318 480 318C516 318 556 333 582 364L632 543C641 576 620 609 587 614L554 619L586 982C590 1022 559 1056 519 1056H441C401 1056 370 1022 374 982L406 619L373 614C340 609 319 576 328 543L378 364Z" fill="#0D8B61"/>
  <path d="M421 617H539" stroke="#F6F1E8" stroke-width="16" stroke-linecap="round"/>
  <text x="480" y="1134" text-anchor="middle" fill="#0D3F31" font-family="Inter, Arial, sans-serif" font-size="42" font-weight="800">Weekly front</text>
</svg>
