<svg width="960" height="1200" viewBox="0 0 960 1200" fill="none" xmlns="http://www.w3.org/2000/svg">
  <rect width="960" height="1200" rx="56" fill="#F7EEEE"/>
  <rect x="116" y="88" width="728" height="1024" rx="44" fill="#FFFEFC"/>
  <path d="M170 1042H790" stroke="#E1D3D0" stroke-width="12" stroke-linecap="round"/>
  <circle cx="480" cy="247" r="76" fill="#0D3F31"/>
  <path d="M376 368C402 335 443 318 480 318C517 318 558 335 584 368L636 542C646 575 625 610 590 614L552 619L589 981C593 1021 562 1056 522 1056H438C398 1056 367 1021 371 981L408 619L370 614C335 610 314 575 324 542L376 368Z" fill="#A66A2B"/>
  <path d="M418 446C450 468 510 468 542 446" stroke="#F7EEEE" stroke-width="14" stroke-linecap="round"/>
  <path d="M424 618H536" stroke="#0D3F31" stroke-width="16" stroke-linecap="round"/>
  <text x="480" y="1134" text-anchor="middle" fill="#0D3F31" font-family="Inter, Arial, sans-serif" font-size="42" font-weight="800">Weekly back</text>
</svg>
